<?xml version="1.0" encoding="utf-8"?>
<!-- Generator: Adobe Illustrator 17.0.2, SVG Export Plug-In . SVG Version: 6.00 Build 0)  -->
<!DOCTYPE svg PUBLIC "-//W3C//DTD SVG 1.1//EN" "http://www.w3.org/Graphics/SVG/1.1/DTD/svg11.dtd">
<svg version="1.1" id="Layer_1" xmlns="http://www.w3.org/2000/svg" xmlns:xlink="http://www.w3.org/1999/xlink" x="0px" y="0px"
	 width="769.333px" height="692px" viewBox="0 0 769.333 692" enable-background="new 0 0 769.333 692" xml:space="preserve">
<path fill="#EB7E23" d="M215.178,234.012c0,0,24.879,12.433,33.173,30.986c8.293,18.553,21.923,47.282,6.027,125.031
	s-67.226,89.058-67.226,89.058l-31.984-0.632l-5.759-59.451l-8.178-113.34L215.178,234.012z"/>
<path fill="none" stroke="#E1A299" stroke-width="34.5267" stroke-linecap="round" stroke-miterlimit="10" d="M218.446,558.041
	c0,0,0,110.128,0,137.512"/>
<path fill="#D16628" d="M4.162,440.586c0,0-0.164-39.586-0.164,0s43.959,88.338,43.959,88.338s-8.614-30.111,15.411-34.323
	s52.545-16.601,52.545-16.601l4.091-29.653l-1.349-79.526l-27.183-40.544l-33.462,3.686L4.162,440.586z"/>
<path fill="#009345" d="M32.784,532.84c0,17.063,0,25.201,0,25.201h202.795c0,0,0-11.906,0-25.201
	c0-38.028-45.397-68.855-101.397-68.855S32.784,494.813,32.784,532.84z"/>
<ellipse fill="#2AB366" cx="136.424" cy="472.916" rx="27.905" ry="12.308"/>
<g>
	<path fill="#F69468" d="M335.868,549.994c-28.405,0-46.151-10.407-52.745-30.934c-1.707-5.313,1.217-11.006,6.531-12.713
		c5.314-1.711,11.006,1.217,12.713,6.531c2.331,7.256,8.34,16.902,33.501,16.902c15.512,0,30.264-12.72,34.314-29.588
		c1.305-5.427,6.76-8.767,12.188-7.467c5.427,1.304,8.771,6.76,7.467,12.188C383.564,531.035,360.867,549.994,335.868,549.994z"/>
</g>
<rect x="57.062" y="526.689" fill="#009345" width="154.24" height="170.702"/>
<path fill="#FAC3B2" d="M113.52,473.454c0,0,6.979,8.375,23.324,8.375s23.324-8.375,23.324-8.375l-2.102-26.083l-39.518-7.008
	L113.52,473.454z"/>
<path fill="#E1A299" d="M70.739,406.141c0,23.843,42.848,48.945,72.795,48.945s72.795-29.594,72.795-55.165
	c0-25.57,0-142.368,0-142.368H70.739C70.739,257.554,70.739,382.299,70.739,406.141z"/>
<ellipse transform="matrix(0.9904 -0.1382 0.1382 0.9904 -51.2234 13.3795)" fill="#E1A299" cx="70.739" cy="375.569" rx="12.612" ry="17.623"/>
<g>
	<defs>
		<path id="SVGID_1_" d="M82.74,256.554h145.59c0,0,0,57.422,0,100.555c0.804-0.102,1.618-0.108,2.436,0.006
			c6.899,0.963,11.401,9.557,10.056,19.197c-1.186,8.497-6.519,14.961-12.492,15.717c0,2.716,0,5.048,0,6.892
			c0,25.57-42.848,55.165-72.795,55.165c-29.948,0-72.795-25.102-72.795-48.945C82.74,402.182,82.74,256.554,82.74,256.554z"/>
	</defs>
	<clipPath id="SVGID_2_">
		<use xlink:href="#SVGID_1_"  overflow="visible"/>
	</clipPath>
	<path clip-path="url(#SVGID_2_)" fill="#FAC3B2" d="M70.305,362.916c0.818-0.114,1.632-0.108,2.436-0.006
		c0-44.195,0-100.555,0-100.555h145.59c0,0,0,54.421,0,97.555c0.804-0.102,1.618-0.108,2.436,0.006
		c6.899,0.963,11.401,9.557,10.056,19.197c-1.186,8.497-6.519,14.961-12.492,15.717c0,2.716,0,8.048,0,9.892
		c0,25.57-42.848,55.165-72.795,55.165c-29.948,0-72.795-25.102-72.795-48.945c0-2.959,0-7.476,0-13.112
		c-5.972-0.756-11.306-7.22-12.492-15.717C58.904,372.474,63.406,363.879,70.305,362.916z"/>
</g>
<path fill="#E1A299" d="M148.535,374.885c0,0,1.325,4.147,2.822,6.565c1.497,2.419,5.932,5.759,5.932,5.759l-12.267,7.429
	l7.429-7.544c0,0-1.958-1.843-2.995-4.953C148.42,379.031,148.535,374.885,148.535,374.885z"/>
<path fill="none" stroke="#775353" stroke-width="4.9646" stroke-linecap="round" stroke-miterlimit="10" d="M194.47,360.157
	c0,0-1.324-10.26-10.591-10.26c-9.267,0-10.591,10.26-10.591,10.26"/>
<path fill="none" stroke="#775353" stroke-width="4.9646" stroke-linecap="round" stroke-miterlimit="10" d="M125.347,360.157
	c0,0-1.324-10.26-10.591-10.26s-10.591,10.26-10.591,10.26"/>
<path fill="#EB7E23" d="M70.739,345.671c0,0,52.601,3.801,96.04-9.335c29.341-8.873,55.216-31.319,68.901-46.34
	c7.657-8.404,8.509-21.697,4.377-32.441c-11.518-29.947-58.975-36.604-83.394-36.604S78.8,225.963,39.177,278.514
	S4.162,440.586,4.162,440.586l45.153-81.094L70.739,345.671z"/>
<path fill="#FFFFFF" d="M176.189,419.336l-59.979-11.333c0,0-2.823,32.167,23.286,32.167S176.189,419.336,176.189,419.336z"/>
<circle fill="#F59D9F" cx="185.212" cy="380.14" r="3.25"/>
<circle fill="#F59D9F" cx="175.3" cy="390.556" r="3.25"/>
<circle fill="#F59D9F" cx="193.386" cy="393.111" r="3.25"/>
<circle fill="#F59D9F" cx="112.663" cy="377.765" r="3.25"/>
<circle fill="#F59D9F" cx="104.974" cy="389.014" r="3.25"/>
<circle fill="#F59D9F" cx="120.004" cy="389.014" r="3.25"/>
<path fill="none" stroke="#CA6928" stroke-width="4" stroke-linecap="round" stroke-miterlimit="10" d="M211.133,276.235
	c0,0-27.811,28.912-59.977,34.09c-32.166,5.178-80.416,6.184-80.416,6.184"/>
<g>
	<path fill="#CE6F51" d="M416.315,729.05c-17.714,0-32.074-14.36-32.074-32.074V441.487c0-17.714,14.36-32.074,32.074-32.074
		s32.074,14.36,32.074,32.074v255.488C448.389,714.689,434.028,729.05,416.315,729.05z"/>
</g>
<rect x="429.588" y="383.237" fill="#1277A0" width="286.569" height="317.154"/>
<path fill="#1277A0" d="M761.263,394.666c0,31.703,0,46.821,0,46.821H384.482c0,0,0-22.12,0-46.821
	c0-70.653,84.345-127.929,188.391-127.929S761.263,324.013,761.263,394.666z"/>
<path fill="none" stroke="#F69468" stroke-width="22.809" stroke-linecap="round" stroke-miterlimit="10" d="M389.235,495.326
	c0,0-2.138-57.165-21.954-76.98c-19.815-19.815-41.34-26.23-41.34-26.23"/>
<path fill="none" stroke="#F69468" stroke-width="22.809" stroke-linecap="round" stroke-miterlimit="10" d="M410.324,494.302
	c0,0-5.605-67.115-12.775-82.304s-11.64-21.462-11.64-21.462"/>
<path fill="#F69468" d="M354.114,443.721c0,0,45.402-1.302,60.798-1.302c4.219,16.505,8.917,26.596,28.583,26.596
	c31.933,0-4.365,71.074-19.476,71.074s-64.303,0-64.303,0l22.22-61.336L354.114,443.721z"/>
<polygon fill="none" stroke="#178BAF" stroke-width="5" stroke-miterlimit="10" points="521.15,460.997 521.15,408.851 
	459.027,408.851 459.027,460.997 490.088,480.61 "/>
<rect x="454.802" y="393.176" fill="#178BAF" width="70.573" height="18.804"/>
<path fill="#E17C4B" d="M335.868,543.993c-28.405,0-46.151-10.407-52.745-30.934c-0.009-0.029-0.014-0.058-0.023-0.087
	c-0.597,1.917-0.638,4.029,0.023,6.087c6.594,20.526,24.34,30.934,52.745,30.934c12.297,0,24.037-4.587,33.539-12.358
	c9.815-8.027,14.818,6.417,18.005-6.856c-7.125,0-16.929-1.068-21.472,3.475C357.118,540.426,346.711,543.993,335.868,543.993z"/>
<g>
	<g>
		<rect x="186.405" y="491.022" fill="#2AB366" width="158.272" height="26.23"/>
		<ellipse fill="#74C38C" cx="265.541" cy="504.137" rx="25.204" ry="8.282"/>
		<rect x="191.267" y="494.605" fill="#016937" width="14.198" height="2.533"/>
		<rect x="324.387" y="494.605" fill="#016937" width="14.724" height="2.533"/>
		<rect x="191.267" y="511.136" fill="#016937" width="14.198" height="2.533"/>
		<rect x="324.387" y="511.136" fill="#016937" width="14.724" height="2.533"/>
		<rect x="186.405" y="517.252" fill="#04773E" width="158.272" height="1.922"/>
	</g>
	<g>
		<g opacity="0.1">
			<ellipse cx="297.862" cy="503.946" rx="41.249" ry="9.048"/>
			<g opacity="0.3">
				<defs>
					<ellipse id="SVGID_3_" opacity="0.3" cx="297.862" cy="503.992" rx="41.249" ry="9.048"/>
				</defs>
				<use xlink:href="#SVGID_3_"  overflow="visible"/>
				<clipPath id="SVGID_4_">
					<use xlink:href="#SVGID_3_"  overflow="visible"/>
				</clipPath>
			</g>
		</g>
		<g>
			<path fill="#F4B919" d="M297.862,494.455h-37.374v8.198c0,0,2.629,4.351,15.786,5.753s21.588,1.402,21.588,1.402V494.455z"/>
			<path fill="#EDAE1F" d="M335.236,494.455h-37.374c0,0,0,13.076,0,15.888c28.663,0,37.374-6.994,37.374-6.994V494.455z"/>
			<ellipse fill="#FDCE07" cx="297.862" cy="494.413" rx="37.374" ry="8.198"/>
			<ellipse fill="#E6B321" cx="297.862" cy="494.413" rx="29.716" ry="6.139"/>
			<g>
				<g>
					<path fill="#F9E27C" d="M303.634,495.817c0,0.274-0.138,0.522-0.414,0.745c-0.276,0.223-0.659,0.414-1.149,0.573
						c-0.49,0.159-1.069,0.282-1.738,0.368c-0.668,0.086-1.386,0.129-2.151,0.129h-0.241c-0.73,0-1.417-0.043-2.058-0.13
						c-0.642-0.087-1.212-0.212-1.711-0.376c-0.499-0.164-0.891-0.364-1.175-0.601c-0.285-0.237-0.428-0.505-0.428-0.804
						c0-0.185,0.16-0.323,0.481-0.416c0.32-0.092,0.677-0.139,1.069-0.139c0.392,0,0.748,0.046,1.068,0.139
						c0.321,0.092,0.481,0.231,0.481,0.416c0,0.267,0.209,0.47,0.628,0.607c0.418,0.137,0.966,0.206,1.643,0.206h0.241
						c0.677,0,1.238-0.06,1.683-0.181c0.446-0.121,0.668-0.302,0.668-0.544c0-0.197-0.192-0.37-0.574-0.52
						c-0.384-0.149-0.865-0.288-1.444-0.415c-0.579-0.127-1.203-0.254-1.871-0.382s-1.292-0.272-1.871-0.434
						c-0.579-0.162-1.061-0.346-1.444-0.553c-0.383-0.207-0.575-0.456-0.575-0.749v-0.2c0-0.254,0.161-0.483,0.483-0.687
						c0.322-0.203,0.737-0.375,1.245-0.515c0.509-0.14,1.068-0.246,1.675-0.319c0.608-0.073,1.206-0.11,1.795-0.11h0.242
						c0.696,0,1.357,0.037,1.982,0.11c0.626,0.073,1.179,0.177,1.662,0.311c0.482,0.134,0.867,0.295,1.152,0.482
						c0.286,0.188,0.429,0.396,0.429,0.626c0,0.185-0.166,0.32-0.499,0.406c-0.332,0.086-0.697,0.129-1.092,0.129
						c-0.377,0-0.724-0.041-1.039-0.124c-0.314-0.083-0.471-0.21-0.471-0.382c0-0.127-0.196-0.236-0.588-0.325
						c-0.392-0.089-0.909-0.134-1.55-0.134h-0.241c-0.588,0-1.082,0.053-1.484,0.158c-0.401,0.105-0.601,0.25-0.601,0.435v0.143
						c0,0.127,0.191,0.245,0.575,0.353c0.383,0.108,0.864,0.222,1.444,0.339c0.578,0.118,1.203,0.245,1.871,0.382
						c0.668,0.137,1.292,0.298,1.871,0.482c0.578,0.185,1.06,0.398,1.443,0.64C303.443,495.199,303.634,495.486,303.634,495.817z"/>
				</g>
				<g>
					<path fill="#F9E17B" d="M298.104,491.752c-0.362,0-0.655-0.105-0.655-0.234v-1.234c0-0.13,0.293-0.234,0.655-0.234
						s0.655,0.105,0.655,0.234v1.234C298.759,491.647,298.466,491.752,298.104,491.752z"/>
				</g>
				<g>
					<path fill="#F9E17B" d="M298.104,498.436c-0.362,0-0.655-0.105-0.655-0.234v-1.234c0-0.13,0.293-0.234,0.655-0.234
						s0.655,0.105,0.655,0.234v1.234C298.759,498.331,298.466,498.436,298.104,498.436z"/>
				</g>
			</g>
			<g opacity="0.3">
				<defs>
					<ellipse id="SVGID_5_" opacity="0.3" cx="297.862" cy="494.455" rx="37.374" ry="8.198"/>
				</defs>
				<clipPath id="SVGID_6_">
					<use xlink:href="#SVGID_5_"  overflow="visible"/>
				</clipPath>
				<polygon clip-path="url(#SVGID_6_)" fill="#FDDF5C" points="278.213,484.56 323.751,502.612 281.898,503.537 262.392,501.416 
					249.46,491.61 261.236,484.878 				"/>
			</g>
			<path fill="#E4A324" d="M335.236,501.061c0,4.214-17.128,7.842-37.374,7.842c-20.22,0-37.374-3.628-37.374-7.842
				c0-0.071,0,2.989,0,2.989c4.039,3.802,19.008,6.55,37.374,6.55c18.314,0,33.258-2.725,37.374-6.503
				C335.236,504.096,335.236,501.03,335.236,501.061z"/>
		</g>
		<g>
			<path fill="#F4B919" d="M297.862,485.85h-37.374v8.198c0,0,2.629,4.351,15.786,5.753s21.588,1.402,21.588,1.402V485.85z"/>
			<path fill="#EDAE1F" d="M335.236,485.85h-37.374c0,0,0,13.076,0,15.888c28.663,0,37.374-6.994,37.374-6.994V485.85z"/>
			<ellipse fill="#FDCE07" cx="297.862" cy="485.808" rx="37.374" ry="8.198"/>
			<ellipse fill="#E6B321" cx="297.862" cy="485.808" rx="29.716" ry="6.139"/>
			<g>
				<g>
					<path fill="#F9E27C" d="M303.634,487.212c0,0.274-0.138,0.522-0.414,0.745c-0.276,0.223-0.659,0.414-1.149,0.573
						c-0.49,0.159-1.069,0.282-1.738,0.368c-0.668,0.086-1.386,0.129-2.151,0.129h-0.241c-0.73,0-1.417-0.043-2.058-0.13
						c-0.642-0.087-1.212-0.212-1.711-0.376c-0.499-0.164-0.891-0.364-1.175-0.601c-0.285-0.237-0.428-0.505-0.428-0.804
						c0-0.185,0.16-0.323,0.481-0.416c0.32-0.092,0.677-0.139,1.069-0.139c0.392,0,0.748,0.046,1.068,0.139
						c0.321,0.092,0.481,0.231,0.481,0.416c0,0.267,0.209,0.47,0.628,0.607c0.418,0.137,0.966,0.206,1.643,0.206h0.241
						c0.677,0,1.238-0.06,1.683-0.181c0.446-0.121,0.668-0.302,0.668-0.544c0-0.197-0.192-0.37-0.574-0.52
						c-0.384-0.149-0.865-0.288-1.444-0.415c-0.579-0.127-1.203-0.254-1.871-0.382s-1.292-0.272-1.871-0.434
						c-0.579-0.162-1.061-0.346-1.444-0.553c-0.383-0.207-0.575-0.456-0.575-0.749v-0.2c0-0.254,0.161-0.483,0.483-0.687
						s0.737-0.375,1.245-0.515c0.509-0.14,1.068-0.246,1.675-0.319c0.608-0.073,1.206-0.11,1.795-0.11h0.242
						c0.696,0,1.357,0.037,1.982,0.11c0.626,0.073,1.179,0.177,1.662,0.311c0.482,0.134,0.867,0.295,1.152,0.482
						c0.286,0.188,0.429,0.396,0.429,0.626c0,0.185-0.166,0.32-0.499,0.406c-0.332,0.086-0.697,0.129-1.092,0.129
						c-0.377,0-0.724-0.041-1.039-0.124c-0.314-0.083-0.471-0.21-0.471-0.382c0-0.127-0.196-0.236-0.588-0.325
						c-0.392-0.089-0.909-0.134-1.55-0.134h-0.241c-0.588,0-1.082,0.053-1.484,0.158c-0.401,0.105-0.601,0.25-0.601,0.435v0.143
						c0,0.128,0.191,0.245,0.575,0.353c0.383,0.108,0.864,0.222,1.444,0.339c0.578,0.118,1.203,0.245,1.871,0.382
						c0.668,0.137,1.292,0.298,1.871,0.482c0.578,0.185,1.06,0.398,1.443,0.64C303.443,486.594,303.634,486.881,303.634,487.212z"/>
				</g>
				<g>
					<path fill="#F9E17B" d="M298.104,483.147c-0.362,0-0.655-0.105-0.655-0.234v-1.234c0-0.13,0.293-0.234,0.655-0.234
						s0.655,0.105,0.655,0.234v1.234C298.759,483.042,298.466,483.147,298.104,483.147z"/>
				</g>
				<g>
					<path fill="#F9E17B" d="M298.104,489.831c-0.362,0-0.655-0.105-0.655-0.234v-1.234c0-0.13,0.293-0.234,0.655-0.234
						s0.655,0.105,0.655,0.234v1.234C298.759,489.726,298.466,489.831,298.104,489.831z"/>
				</g>
			</g>
			<g opacity="0.3">
				<defs>
					<ellipse id="SVGID_7_" opacity="0.3" cx="297.862" cy="485.85" rx="37.374" ry="8.198"/>
				</defs>
				<clipPath id="SVGID_8_">
					<use xlink:href="#SVGID_7_"  overflow="visible"/>
				</clipPath>
				<polygon clip-path="url(#SVGID_8_)" fill="#FDDF5C" points="278.213,475.955 323.751,494.006 281.898,494.931 262.392,492.811 
					249.46,483.005 261.236,476.273 				"/>
			</g>
			<path fill="#E4A324" d="M335.236,492.456c0,4.214-17.128,7.842-37.374,7.842c-20.22,0-37.374-3.628-37.374-7.842
				c0-0.071,0,2.989,0,2.989c4.039,3.802,19.008,6.55,37.374,6.55c18.314,0,33.258-2.725,37.374-6.503
				C335.236,495.491,335.236,492.425,335.236,492.456z"/>
		</g>
		<g>
			<path fill="#F4B919" d="M297.862,477.244h-37.374v8.198c0,0,2.629,4.351,15.786,5.753s21.588,1.402,21.588,1.402V477.244z"/>
			<path fill="#EDAE1F" d="M335.236,477.244h-37.374c0,0,0,13.076,0,15.888c28.663,0,37.374-6.994,37.374-6.994V477.244z"/>
			<ellipse fill="#FDCE07" cx="297.862" cy="477.203" rx="37.374" ry="8.198"/>
			<ellipse fill="#E6B321" cx="297.862" cy="477.203" rx="29.716" ry="6.139"/>
			<g>
				<g>
					<path fill="#F9E27C" d="M303.634,478.607c0,0.274-0.138,0.522-0.414,0.745c-0.276,0.223-0.659,0.414-1.149,0.573
						c-0.49,0.159-1.069,0.282-1.738,0.368c-0.668,0.086-1.386,0.129-2.151,0.129h-0.241c-0.73,0-1.417-0.043-2.058-0.13
						c-0.642-0.087-1.212-0.212-1.711-0.376c-0.499-0.164-0.891-0.364-1.175-0.601c-0.285-0.237-0.428-0.505-0.428-0.804
						c0-0.185,0.16-0.323,0.481-0.416c0.32-0.092,0.677-0.139,1.069-0.139c0.392,0,0.748,0.046,1.068,0.139
						c0.321,0.092,0.481,0.231,0.481,0.416c0,0.267,0.209,0.47,0.628,0.607c0.418,0.137,0.966,0.206,1.643,0.206h0.241
						c0.677,0,1.238-0.06,1.683-0.181c0.446-0.121,0.668-0.302,0.668-0.544c0-0.197-0.192-0.37-0.574-0.52
						c-0.384-0.149-0.865-0.288-1.444-0.415c-0.579-0.127-1.203-0.254-1.871-0.382s-1.292-0.272-1.871-0.434
						c-0.579-0.162-1.061-0.346-1.444-0.553c-0.383-0.207-0.575-0.456-0.575-0.749v-0.2c0-0.254,0.161-0.483,0.483-0.687
						c0.322-0.203,0.737-0.375,1.245-0.515c0.509-0.14,1.068-0.246,1.675-0.319c0.608-0.073,1.206-0.11,1.795-0.11h0.242
						c0.696,0,1.357,0.037,1.982,0.11c0.626,0.073,1.179,0.177,1.662,0.311c0.482,0.134,0.867,0.295,1.152,0.482
						c0.286,0.188,0.429,0.396,0.429,0.626c0,0.185-0.166,0.32-0.499,0.406c-0.332,0.086-0.697,0.129-1.092,0.129
						c-0.377,0-0.724-0.041-1.039-0.124c-0.314-0.083-0.471-0.21-0.471-0.382c0-0.127-0.196-0.236-0.588-0.325
						c-0.392-0.089-0.909-0.134-1.55-0.134h-0.241c-0.588,0-1.082,0.053-1.484,0.158c-0.401,0.105-0.601,0.25-0.601,0.435v0.143
						c0,0.127,0.191,0.245,0.575,0.353c0.383,0.108,0.864,0.222,1.444,0.339c0.578,0.118,1.203,0.245,1.871,0.382
						c0.668,0.137,1.292,0.298,1.871,0.482c0.578,0.185,1.06,0.398,1.443,0.64C303.443,477.989,303.634,478.276,303.634,478.607z"/>
				</g>
				<g>
					<path fill="#F9E17B" d="M298.104,474.542c-0.362,0-0.655-0.105-0.655-0.234v-1.234c0-0.13,0.293-0.234,0.655-0.234
						s0.655,0.105,0.655,0.234v1.234C298.759,474.437,298.466,474.542,298.104,474.542z"/>
				</g>
				<g>
					<path fill="#F9E17B" d="M298.104,481.225c-0.362,0-0.655-0.105-0.655-0.234v-1.234c0-0.13,0.293-0.234,0.655-0.234
						s0.655,0.105,0.655,0.234v1.234C298.759,481.121,298.466,481.225,298.104,481.225z"/>
				</g>
			</g>
			<g opacity="0.3">
				<defs>
					<ellipse id="SVGID_9_" opacity="0.3" cx="297.862" cy="477.244" rx="37.374" ry="8.198"/>
				</defs>
				<clipPath id="SVGID_10_">
					<use xlink:href="#SVGID_9_"  overflow="visible"/>
				</clipPath>
				<polygon clip-path="url(#SVGID_10_)" fill="#FDDF5C" points="278.213,467.35 323.751,485.401 281.898,486.326 262.392,484.206 
					249.46,474.4 261.236,467.668 				"/>
			</g>
			<path fill="#E4A324" d="M335.236,483.851c0,4.214-17.128,7.842-37.374,7.842c-20.22,0-37.374-3.628-37.374-7.842
				c0-0.071,0,2.989,0,2.989c4.039,3.802,19.008,6.55,37.374,6.55c18.314,0,33.258-2.725,37.374-6.503
				C335.236,486.886,335.236,483.82,335.236,483.851z"/>
		</g>
	</g>
</g>
<path fill="none" stroke="#F69468" stroke-width="20.213" stroke-linecap="round" stroke-miterlimit="10" d="M292.615,467.175
	c5.933-18.218,23.055-24.31,43.253-24.31c21.138,0,38.907,16.568,44.008,36.788l2.064,33.484l26.36-3.884"/>
<path fill="#178BAF" d="M580.873,304.89l-49.206,42.5l-33.578-67.671c0,0-11.811,3.063,11.74-4.829"/>
<path fill="#178BAF" d="M565.775,304.89l52.573,42.5l26.951-69.562c0,0,15.072,4.954-8.48-2.938"/>
<g>
	<path fill="#FAC3B2" d="M209.997,625.706H76.638c-16.265,0-26.204-6.724-31.678-12.364c-11.766-12.121-12.209-28.38-12.175-31.61
		v-23.69h34.527v24.146c0.03,0.984,0.353,3.78,1.533,5.884c0.61,1.086,1.745,3.107,7.792,3.107h133.359V625.706z"/>
</g>
<g>
	<path fill="#FAC3B2" d="M267.828,599.065v12.752c0,0-3.405,6.797-17.25,11.078c-9.752,0-15.564,0-18.787,0l-13.366-0.482
		l-1.773,1.852l14.824,4.965h16.04c0,0-3.854,6.15-6.763,6.15c-5.032,0-9.713,0-18.871,0c-9.157,0-23.785-10.226-23.785-10.226
		l-6.836-15.19l6.836-15.519c0,0,8.188-9.897,17.387-9.897c7.191,0,26.992,0,36.899,0S267.828,599.065,267.828,599.065z"/>
	<path fill="#FAC3B2" d="M279.581,603.5h-35.487c-2.522,0-4.585-2.063-4.585-4.585v-0.528c0-2.522,2.063-4.585,4.585-4.585h35.487
		c2.522,0,4.585,2.063,4.585,4.585v0.528C284.166,601.437,282.103,603.5,279.581,603.5z"/>
	<path fill="#FAC3B2" d="M267.66,594.247h-32.314c-2.522,0-4.585-2.063-4.585-4.585v-0.528c0-2.522,2.063-4.585,4.585-4.585h32.314
		c2.522,0,4.585,2.063,4.585,4.585v0.528C272.245,592.184,270.182,594.247,267.66,594.247z"/>
	<path fill="#FAC3B2" d="M284.57,613.198h-35.487c-2.522,0-4.585-2.063-4.585-4.585v-0.528c0-2.522,2.063-4.585,4.585-4.585h35.487
		c2.522,0,4.585,2.063,4.585,4.585v0.528C289.155,611.135,287.092,613.198,284.57,613.198z"/>
	<path fill="#FAC3B2" d="M277.694,622.895h-35.487c-2.522,0-4.585-2.063-4.585-4.585v-0.528c0-2.522,2.063-4.585,4.585-4.585h35.487
		c2.522,0,4.585,2.063,4.585,4.585v0.528C282.279,620.832,280.216,622.895,277.694,622.895z"/>
</g>
<path fill="#FAC3B2" d="M252.804,633.996H223.75c-2.522,0-4.585-2.063-4.585-4.585l0,0c0-2.522,2.063-4.585,4.585-4.585h29.054
	c2.522,0,4.585,2.063,4.585,4.585l0,0C257.389,631.933,255.326,633.996,252.804,633.996z"/>
<path fill="#FAC3B2" d="M231.389,622.191c-0.772,0-1.398,0.59-1.398,1.318c0,0.728,0.626,1.318,1.398,1.318l-14.714,1.48v-5.36
	l10.259,0.683L231.389,622.191z"/>
<g>
	<path fill="#E1A299" d="M64.146,588.071c0.61,1.086,1.745,3.107,7.792,3.107h4.72c-6.047,0-7.182-2.021-7.792-3.107
		c-1.181-2.104-1.503-4.899-1.533-5.884v-24.146h-4.72v24.146C62.643,583.172,62.965,585.968,64.146,588.071z"/>
</g>
<path fill="none" stroke="#178BAF" stroke-width="5" stroke-miterlimit="10" d="M585.662,314.89H561.89c0,0,0,47.981,0,60.5"/>
<g>
	<ellipse fill="#E17C4B" cx="687.573" cy="143.952" rx="17.314" ry="30.161"/>
	<ellipse fill="#F69468" cx="458.172" cy="143.952" rx="17.314" ry="30.161"/>
	<path fill="#F69468" d="M691.509,155.478c0,83.575-18.876,165.658-119.095,165.658s-119.095-82.083-119.095-165.658
		S474.569,4.153,572.414,4.153S691.509,71.903,691.509,155.478z"/>
	<path fill="#E17C4B" d="M572.205,4.153c-6.222,0-12.333,0.609-18.298,1.778c57.087,11.186,100.797,73.88,100.797,149.548
		c0,78.212-16.537,152.627-100.797,164.422c5.777,0.809,11.868,1.236,18.298,1.236c100.219,0,119.095-82.083,119.095-165.658
		C691.3,30.817,637.979,4.153,572.205,4.153z"/>
	<path fill="#3D2A1D" d="M453.319,155.478c8.132,5.975,19.948,30.973,29.392,30.973c-15.347-39.5-4.281-146.32-23.171-94.457
		C452.508,111.3,453.319,132.807,453.319,155.478z"/>
	<path fill="#3D2A1D" d="M691.509,155.478c0-22.671,3.096-44.355-3.935-63.661c-16.883-46.354-12.347,30.02-20.814,75.827
		c-4.475,2.07-10.314,8.362-16.125,10.333c-18.564,6.297-44.166-11.333-78.221-11.333c-34.052,0-59.652,17.631-78.216,11.335
		c-29.063-9.857-40.879-22.501-40.879-22.501c0,83.575,18.876,165.658,119.095,165.658
		C672.632,321.136,691.509,239.053,691.509,155.478C691.509,155.478,690.681,156.086,691.509,155.478z"/>
	<g>
		<path fill="#281A12" d="M679.486,156.853c0,46.44-9.735,94.465-32.114,131.64c-16.952,28.16-39.497,30.568-80.094,32.551
			c2.256,0.11,4.542,0.184,6.886,0.184c100.218,0,119.095-80.8,119.095-164.375c0-22.671,0.346-48.022-6.686-67.328
			 M692.985,157.054c0.03-0.022,0.073-0.053,0.122-0.09C693.065,156.996,693.023,157.026,692.985,157.054z"/>
	</g>
	<path fill="none" stroke="#D73B3B" stroke-width="5.3228" stroke-linecap="round" stroke-miterlimit="10" d="M553.907,236.453
		c0,0,21.319,0,33.289,0s11.97-6.969,11.97-6.969"/>
	<path fill="#F69468" d="M573.903,135.085h-2.979c-10.986,0-19.892,8.906-19.892,19.892v26.951c0,10.986,8.906,19.893,19.892,19.893
		h2.979c10.986,0,19.892-8.906,19.892-19.893v-26.951C593.796,143.991,584.889,135.085,573.903,135.085z"/>
	<path opacity="0.3" fill="none" stroke="#603A17" stroke-width="5.3228" stroke-linecap="round" stroke-miterlimit="10" d="
		M528.085,42.579c0,0,11.301-13,44.329-13s44.329,13,44.329,13"/>
	<path d="M511.768,121.208L511.768,121.208c-4.832,0-8.75-3.918-8.75-8.75v-3.598c0-4.832,3.918-8.75,8.75-8.75l0,0
		c4.833,0,8.75,3.918,8.75,8.75v3.598C520.518,117.29,516.601,121.208,511.768,121.208z"/>
	<path d="M633.059,121.208L633.059,121.208c-4.833,0-8.75-3.918-8.75-8.75v-3.598c0-4.832,3.917-8.75,8.75-8.75l0,0
		c4.833,0,8.75,3.918,8.75,8.75v3.598C641.809,117.29,637.892,121.208,633.059,121.208z"/>
</g>
<circle fill="#178BAF" cx="573.776" cy="359.665" r="4.553"/>
<circle fill="#178BAF" cx="573.776" cy="336.283" r="4.553"/>
<g>
	<g>
		<path fill="#F69468" d="M676.825,540.106H384.482v-71.891h292.344c2.343,0,8.011-0.227,10.048-2.326
			c2.608-2.687,3.438-9.626,3.425-10.059l-0.016-1.072v-44.24h71.891v43.871c0.122,7.559-0.907,38.074-23.712,61.57
			C727.769,526.975,708.398,540.106,676.825,540.106z"/>
	</g>
	<path fill="none" stroke="#3D2A1D" stroke-width="5" stroke-miterlimit="10" d="M475.915,506.557v-39.838
		c0,0-0.5-5.928,7.083-5.928c7.583,0,7.083,5.928,7.083,5.928v1.505"/>
	<path fill="none" stroke="#3D2A1D" stroke-width="5" stroke-miterlimit="10" d="M515.919,506.557v-39.838
		c0,0-0.5-5.928,7.083-5.928c7.583,0,7.083,5.928,7.083,5.928v1.505"/>
	<path fill="none" stroke="#3D2A1D" stroke-width="5" stroke-miterlimit="10" d="M555.923,506.557v-39.838
		c0,0-0.5-5.928,7.083-5.928c7.583,0,7.083,5.928,7.083,5.928v1.505"/>
	<path fill="none" stroke="#3D2A1D" stroke-width="5" stroke-miterlimit="10" d="M595.927,506.557v-39.838
		c0,0-0.5-5.928,7.083-5.928s7.083,5.928,7.083,5.928v1.505"/>
	<path fill="none" stroke="#3D2A1D" stroke-width="5" stroke-miterlimit="10" d="M635.931,506.557v-39.838
		c0,0-0.5-5.928,7.083-5.928c7.583,0,7.083,5.928,7.083,5.928v1.505"/>
	<path fill="#E17C4B" d="M762.173,454.389v-43.871h-8.001v34.544c0.122,7.559-0.907,38.074-23.712,61.57
		c-10.692,11.016-30.063,24.146-61.636,24.146c0,0-270.006,0-284.584,0c-6.212,0-10.458,1.694-13.286,3.638
		c-3.807,2.618-5.042,5.689-5.042,5.689h18.569h292.344c31.572,0,50.943-13.131,61.636-24.146
		C761.266,492.464,762.295,461.948,762.173,454.389z"/>
</g>
<rect x="687.949" y="410.518" fill="#178BAF" width="76.38" height="38.515"/>
<circle fill="#1277A0" cx="751.162" cy="432.14" r="4.75"/>
<rect x="690.282" y="449.033" opacity="0.1" width="71.985" height="3.211"/>
<rect x="31.561" y="557.218" fill="#2AB366" width="35.784" height="3.923"/>
<rect x="32.797" y="561.18" opacity="0.1" width="34.548" height="1.341"/>
</svg>
