<?xml version="1.0" encoding="utf-8"?>
<!-- Generator: Adobe Illustrator 17.0.2, SVG Export Plug-In . SVG Version: 6.00 Build 0)  -->
<!DOCTYPE svg PUBLIC "-//W3C//DTD SVG 1.1//EN" "http://www.w3.org/Graphics/SVG/1.1/DTD/svg11.dtd">
<svg version="1.1" id="Layer_1" xmlns="http://www.w3.org/2000/svg" xmlns:xlink="http://www.w3.org/1999/xlink" x="0px" y="0px"
	 width="1010.66px" height="178.5px" viewBox="0 0 1010.66 178.5" enable-background="new 0 0 1010.66 178.5" xml:space="preserve">
<g>
	<defs>
		<rect id="SVGID_1_" width="1010.661" height="178.5"/>
	</defs>
	<clipPath id="SVGID_2_">
		<use xlink:href="#SVGID_1_"  overflow="visible"/>
	</clipPath>
	<path clip-path="url(#SVGID_2_)" fill="#FFFFFF" d="M222.109,115.064h0.781l5.248-19.541l11.948-38.412
		c0.224-0.744,0.576-1.209,1.061-1.397c0.483-0.184,1.134-0.279,1.954-0.279h13.623c0.743,0,1.173,0.224,1.284,0.67
		c0.112,0.447,0.093,0.857-0.055,1.229l-24.008,70.459c-0.446,1.339-0.912,2.383-1.396,3.126c-0.485,0.745-1.044,1.323-1.674,1.731
		c-0.634,0.41-1.36,0.689-2.178,0.838c-0.82,0.15-1.75,0.222-2.792,0.222h-6.923c-1.116,0-2.085-0.072-2.903-0.222
		c-0.82-0.149-1.546-0.447-2.177-0.894c-0.634-0.446-1.211-1.06-1.732-1.842s-1.004-1.804-1.451-3.071l-23.784-70.347
		c-0.15-0.52-0.131-0.967,0.056-1.34c0.184-0.371,0.614-0.559,1.284-0.559h13.399c1.042,0,1.748,0.168,2.123,0.503
		c0.371,0.335,0.669,0.837,0.892,1.507l11.725,37.853L222.109,115.064z"/>
	<path clip-path="url(#SVGID_2_)" fill="#FFFFFF" d="M327.853,133.098c-0.299,0.41-0.893,0.613-1.786,0.613h-33.053
		c-4.17,0-7.575-0.593-10.217-1.786c-2.643-1.19-4.746-2.753-6.309-4.69c-1.563-1.934-2.643-4.131-3.239-6.588
		c-0.596-2.456-0.892-4.949-0.892-7.481V76.094c0-2.68,0.371-5.248,1.116-7.705c0.743-2.457,1.916-4.651,3.518-6.588
		c1.599-1.936,3.702-3.478,6.308-4.635c2.606-1.152,5.807-1.73,9.604-1.73h32.047c0.893,0,1.468,0.187,1.73,0.558
		c0.261,0.374,0.392,1.081,0.392,2.121v9.493c0,0.967-0.151,1.619-0.448,1.953c-0.297,0.336-0.856,0.503-1.674,0.503h-28.363
		c-2.903,0-4.839,0.67-5.806,2.011c-0.968,1.339-1.451,2.977-1.451,4.912v8.598h32.046c0.894,0,1.469,0.187,1.731,0.558
		c0.261,0.374,0.392,1.08,0.392,2.122v8.71c0,0.893-0.131,1.545-0.392,1.954c-0.262,0.409-0.837,0.614-1.731,0.614h-32.046v12.729
		c0,2.607,0.614,4.375,1.841,5.305c1.229,0.931,3.034,1.396,5.416,1.396h29.48c0.966,0,1.58,0.167,1.842,0.502
		c0.259,0.335,0.39,1.06,0.39,2.178v9.49C328.298,132.037,328.15,132.69,327.853,133.098"/>
	<path clip-path="url(#SVGID_2_)" fill="#FFFFFF" d="M380.221,119.53c3.573,0,6.736-0.427,9.491-1.284
		c2.753-0.856,5.322-1.731,7.705-2.624c1.041-0.447,1.786-0.539,2.234-0.279c0.446,0.261,0.854,0.8,1.227,1.619l3.797,8.04
		c0.52,1.043,0.707,1.824,0.559,2.344c-0.151,0.522-0.559,0.968-1.229,1.34c-4.019,2.456-8.246,4.114-12.674,4.97
		c-4.429,0.854-8.803,1.283-13.12,1.283c-6.105,0-11.372-0.912-15.801-2.735c-4.429-1.823-8.078-4.447-10.942-7.872
		c-2.867-3.424-4.988-7.612-6.365-12.563c-1.378-4.949-2.066-10.513-2.066-16.693c0-6.104,0.874-11.65,2.624-16.638
		c1.749-4.986,4.188-9.268,7.314-12.841c3.127-3.574,6.904-6.326,11.334-8.263c4.429-1.935,9.324-2.904,14.683-2.904
		c3.797,0,7.519,0.318,11.167,0.95c3.646,0.633,7.219,1.917,10.719,3.852c0.819,0.447,1.302,0.893,1.452,1.34
		c0.149,0.447-0.039,1.303-0.558,2.568l-3.462,7.705c-0.373,1.043-0.764,1.674-1.172,1.899c-0.41,0.222-1.136,0.149-2.178-0.225
		c-2.679-0.966-5.175-1.691-7.481-2.177c-2.308-0.483-4.876-0.725-7.704-0.725c-3.054,0-5.751,0.652-8.096,1.954
		c-2.345,1.304-4.318,3.09-5.918,5.36c-1.602,2.272-2.811,4.951-3.63,8.039c-0.819,3.09-1.227,6.459-1.227,10.106
		c0,3.648,0.315,6.961,0.949,9.937c0.631,2.979,1.711,5.547,3.238,7.705c1.525,2.161,3.517,3.835,5.974,5.026
		C373.521,118.935,376.573,119.53,380.221,119.53"/>
	<path clip-path="url(#SVGID_2_)" fill="#FFFFFF" d="M461.845,83.91l26.018,47.01c0.52,0.82,0.669,1.49,0.447,2.01
		c-0.224,0.521-0.745,0.781-1.564,0.781h-12.953c-1.563,0-2.699-0.092-3.405-0.28c-0.709-0.183-1.435-0.949-2.178-2.289
		l-17.977-33.386l-11.837,14.181v19.43c0,1.043-0.15,1.693-0.446,1.953c-0.298,0.262-1.005,0.391-2.122,0.391h-11.724
		c-0.894,0-1.546-0.167-1.954-0.502c-0.41-0.335-0.615-0.949-0.615-1.842V57.892c0-0.893,0.205-1.507,0.615-1.842
		c0.408-0.335,1.06-0.503,1.954-0.503h11.724c1.117,0,1.824,0.13,2.122,0.391c0.296,0.262,0.446,0.912,0.446,1.954v29.926
		l0.447,0.223l10.496-13.287l13.958-17.42c0.67-0.743,1.34-1.229,2.01-1.451c0.67-0.224,1.748-0.336,3.238-0.336h14.405
		c0.669,0,1.133,0.207,1.395,0.615c0.261,0.41,0.13,0.912-0.391,1.507L461.845,83.91z"/>
	<path clip-path="url(#SVGID_2_)" fill="#FFFFFF" d="M569.265,94.406c0,6.402-0.689,12.098-2.066,17.084
		c-1.377,4.988-3.517,9.231-6.42,12.731c-2.904,3.5-6.551,6.16-10.943,7.983c-4.393,1.823-9.603,2.735-15.633,2.735
		c-11.54,0-20.119-3.498-25.738-10.496c-5.622-6.996-8.431-16.897-8.431-29.702c0-6.253,0.799-11.892,2.401-16.917
		c1.6-5.025,3.89-9.268,6.867-12.729c2.977-3.462,6.589-6.122,10.832-7.984c4.243-1.86,9.044-2.792,14.404-2.792
		c5.807,0,10.887,0.932,15.242,2.792c4.355,1.862,7.964,4.522,10.832,7.984c2.864,3.461,5.024,7.667,6.476,12.618
		C568.539,82.664,569.265,88.228,569.265,94.406 M551.511,94.741c0-3.351-0.243-6.55-0.726-9.602
		c-0.485-3.053-1.359-5.733-2.624-8.041c-1.267-2.306-2.978-4.149-5.136-5.527c-2.16-1.377-4.952-2.065-8.375-2.065
		c-2.83,0-5.304,0.652-7.426,1.953c-2.121,1.303-3.891,3.071-5.304,5.305c-1.415,2.232-2.457,4.839-3.127,7.816
		c-0.67,2.978-1.005,6.141-1.005,9.491c0,3.946,0.28,7.481,0.838,10.609c0.559,3.125,1.489,5.805,2.791,8.039
		c1.302,2.233,3.034,3.947,5.193,5.136c2.158,1.192,4.875,1.787,8.151,1.787c3.2,0,5.88-0.687,8.04-2.066
		c2.158-1.377,3.87-3.199,5.137-5.472c1.264-2.269,2.177-4.913,2.735-7.927C551.232,101.162,551.511,98.017,551.511,94.741"/>
	<path clip-path="url(#SVGID_2_)" fill="#FFFFFF" d="M588.247,60.572c0-1.711,0.352-2.996,1.06-3.852
		c0.707-0.855,2.066-1.284,4.075-1.284h25.795c3.423,0,6.569,0.558,9.436,1.675c2.864,1.116,5.34,2.68,7.425,4.69
		c2.084,2.01,3.685,4.41,4.801,7.202c1.118,2.792,1.675,5.862,1.675,9.212c0,2.085-0.335,4.467-1.005,7.146
		c-0.67,2.68-1.917,5.231-3.74,7.649c-1.825,2.42-4.318,4.449-7.481,6.086c-3.165,1.638-7.203,2.457-12.116,2.457h-21.439v30.818
		c0,0.598-0.112,0.969-0.335,1.117c-0.224,0.151-0.634,0.223-1.229,0.223h-5.471c-0.522,0-0.894-0.072-1.116-0.223
		c-0.224-0.148-0.335-0.519-0.335-1.117V60.572z M596.734,93.959h20.434c5.136,0,9.157-1.32,12.059-3.963
		c2.903-2.642,4.356-6.422,4.356-11.334c0-1.637-0.262-3.367-0.783-5.193c-0.521-1.822-1.415-3.479-2.679-4.969
		c-1.267-1.488-2.959-2.717-5.08-3.685c-2.122-0.965-4.785-1.452-7.985-1.452h-20.322V93.959z"/>
	<path clip-path="url(#SVGID_2_)" fill="#FFFFFF" d="M709.846,133.209c-0.223,0.335-0.708,0.502-1.451,0.502h-31.042
		c-3.5,0-6.421-0.482-8.766-1.451c-2.345-0.967-4.207-2.289-5.583-3.964c-1.379-1.675-2.364-3.63-2.96-5.862
		c-0.596-2.234-0.892-4.616-0.892-7.147V73.972c0-2.531,0.335-4.931,1.005-7.202c0.67-2.27,1.73-4.244,3.182-5.918
		c1.451-1.675,3.33-2.997,5.639-3.964c2.307-0.967,5.098-1.452,8.375-1.452h30.26c0.744,0,1.228,0.168,1.452,0.502
		c0.223,0.335,0.335,0.837,0.335,1.507v3.909c0,0.746-0.112,1.248-0.335,1.507c-0.224,0.262-0.708,0.391-1.452,0.391h-30.149
		c-3.425,0-5.9,0.781-7.426,2.346c-1.526,1.562-2.289,3.946-2.289,7.146v15.633h36.29c0.671,0,1.118,0.131,1.341,0.391
		c0.223,0.261,0.335,0.763,0.335,1.506v3.685c0,0.598-0.112,1.061-0.335,1.396c-0.223,0.335-0.67,0.502-1.341,0.502h-36.29v20.547
		c0,2.83,0.726,5.1,2.178,6.811c1.451,1.713,3.964,2.568,7.537,2.568h30.931c0.743,0,1.228,0.151,1.451,0.447
		c0.224,0.298,0.335,0.82,0.335,1.563v3.908C710.181,132.371,710.07,132.874,709.846,133.209"/>
	<path clip-path="url(#SVGID_2_)" fill="#FFFFFF" d="M735.415,67.719v64.541c0,0.597-0.112,0.988-0.335,1.172
		c-0.224,0.187-0.634,0.279-1.228,0.279h-5.361c-0.521,0-0.912-0.092-1.172-0.279c-0.261-0.184-0.39-0.575-0.39-1.172V60.35
		c0-1.637,0.335-2.865,1.005-3.686c0.669-0.818,1.934-1.228,3.796-1.228h2.456c1.414,0,2.438,0.299,3.071,0.893
		c0.632,0.597,1.396,1.638,2.289,3.126l28.14,46.006l9.491,16.079h0.446V56.888c0-0.595,0.112-0.985,0.335-1.173
		c0.224-0.185,0.632-0.279,1.228-0.279h5.361c0.519,0,0.91,0.094,1.172,0.279c0.259,0.188,0.39,0.578,0.39,1.173v71.911
		c0,1.563-0.317,2.774-0.949,3.629c-0.633,0.856-1.881,1.283-3.74,1.283h-2.568c-1.491,0-2.551-0.315-3.183-0.949
		c-0.633-0.631-1.396-1.691-2.289-3.182l-29.144-47.568l-8.486-14.293H735.415z"/>
	<path clip-path="url(#SVGID_2_)" fill="#FFFFFF" d="M838.813,127.123c0.818,0,1.879-0.036,3.183-0.111
		c1.301-0.074,2.716-0.223,4.243-0.448c1.525-0.222,3.107-0.557,4.746-1.003c1.637-0.448,3.199-1.006,4.689-1.676V97.197
		c-1.043-0.222-2.16-0.371-3.349-0.446c-1.192-0.073-2.309-0.112-3.35-0.112c-2.607,0-6.485-0.077-10.417,0.236
		c-3.932,0.312-6.036,0.822-6.333,0.896c-0.298,0.075-0.633-0.185-1.005-0.782l-1.786-3.908c-0.447-0.743-0.262-1.452,0.558-2.122
		c2.381-1.637,15.371-2.136,18.647-2.136c1.936,0,3.573,0.056,4.914,0.167c1.34,0.112,2.753,0.279,4.243,0.503
		c2.381,0.446,4.038,1.228,4.969,2.345c0.93,1.117,1.396,2.903,1.396,5.359v28.81c0,0.819-0.112,1.507-0.335,2.065
		c-0.224,0.559-0.708,1.025-1.452,1.397c-2.01,1.191-4.187,2.14-6.532,2.846c-2.345,0.708-4.635,1.267-6.867,1.675
		c-2.233,0.408-4.318,0.67-6.254,0.782c-1.936,0.112-3.536,0.167-4.801,0.167c-5.063,0-9.623-0.781-13.678-2.344
		c-4.059-1.564-7.501-3.964-10.329-7.202c-2.831-3.239-5.008-7.333-6.533-12.284c-1.526-4.949-2.289-10.812-2.289-17.586
		c0-6.327,0.799-12.021,2.401-17.085c1.6-5.061,3.87-9.379,6.811-12.953c2.941-3.573,6.514-6.308,10.72-8.207
		c4.205-1.898,8.877-2.847,14.014-2.847c3.2,0,6.625,0.297,10.273,0.893c3.646,0.597,7.369,1.861,11.166,3.797
		c0.371,0.223,0.614,0.502,0.726,0.837c0.111,0.335,0.017,0.801-0.28,1.395l-2.121,4.691c-0.299,0.446-0.558,0.725-0.782,0.837
		c-0.223,0.112-0.597,0.056-1.116-0.167c-2.755-1.34-5.678-2.307-8.766-2.904c-3.09-0.594-6.049-0.892-8.877-0.892
		c-4.542,0-8.413,0.892-11.613,2.68c-3.201,1.786-5.825,4.187-7.872,7.201c-2.049,3.015-3.537,6.515-4.467,10.497
		c-0.932,3.983-1.395,8.134-1.395,12.45c0,4.541,0.408,8.729,1.228,12.563c0.818,3.834,2.194,7.146,4.131,9.937
		c1.935,2.791,4.504,4.969,7.705,6.532C830.177,126.342,834.123,127.123,838.813,127.123"/>
	<path clip-path="url(#SVGID_2_)" fill="#FFFFFF" d="M934.396,133.209c-0.223,0.335-0.708,0.502-1.451,0.502h-31.042
		c-3.5,0-6.421-0.482-8.766-1.451c-2.345-0.967-4.207-2.289-5.583-3.964c-1.379-1.675-2.364-3.63-2.96-5.862
		c-0.596-2.234-0.892-4.616-0.892-7.147V73.972c0-2.531,0.335-4.931,1.004-7.202c0.67-2.27,1.731-4.244,3.183-5.918
		c1.451-1.675,3.33-2.997,5.639-3.964c2.306-0.967,5.097-1.452,8.375-1.452h30.26c0.744,0,1.228,0.168,1.452,0.502
		c0.223,0.335,0.335,0.837,0.335,1.507v3.909c0,0.746-0.112,1.248-0.335,1.507c-0.224,0.262-0.708,0.391-1.452,0.391h-30.149
		c-3.425,0-5.9,0.781-7.426,2.346c-1.526,1.562-2.289,3.946-2.289,7.146v15.633h36.29c0.671,0,1.117,0.131,1.341,0.391
		c0.223,0.261,0.335,0.763,0.335,1.506v3.685c0,0.598-0.112,1.061-0.335,1.396c-0.224,0.335-0.67,0.502-1.341,0.502h-36.29v20.547
		c0,2.83,0.726,5.1,2.178,6.811c1.451,1.713,3.964,2.568,7.537,2.568h30.931c0.743,0,1.228,0.151,1.451,0.447
		c0.224,0.298,0.335,0.82,0.335,1.563v3.908C934.731,132.371,934.62,132.874,934.396,133.209"/>
	<path clip-path="url(#SVGID_2_)" fill="#FFFFFF" d="M959.967,67.719v64.541c0,0.597-0.112,0.988-0.335,1.172
		c-0.224,0.187-0.634,0.279-1.228,0.279h-5.361c-0.521,0-0.912-0.092-1.172-0.279c-0.261-0.184-0.39-0.575-0.39-1.172V60.35
		c0-1.637,0.335-2.865,1.005-3.686c0.67-0.818,1.934-1.228,3.796-1.228h2.457c1.413,0,2.437,0.299,3.07,0.893
		c0.632,0.597,1.396,1.638,2.289,3.126l28.14,46.006l9.491,16.079h0.446V56.888c0-0.595,0.112-0.985,0.335-1.173
		c0.224-0.185,0.632-0.279,1.229-0.279h5.36c0.519,0,0.91,0.094,1.172,0.279c0.26,0.188,0.39,0.578,0.39,1.173v71.911
		c0,1.563-0.317,2.774-0.949,3.629c-0.633,0.856-1.881,1.283-3.74,1.283h-2.568c-1.491,0-2.551-0.315-3.183-0.949
		c-0.633-0.631-1.396-1.691-2.289-3.182l-29.144-47.568l-8.486-14.293H959.967z"/>
	<path clip-path="url(#SVGID_2_)" fill="#106384" d="M111.627,5.546C108.04,1.866,103.143,0,97.073,0H38.055
		c-10.23,0-15.359,5.673-17.859,10.433c-2.521,4.797-2.798,9.458-2.821,9.973l-0.004,78.759l15-5.46V26h70v42.227l15-5.459V20.64
		C117.382,19.707,117.317,11.384,111.627,5.546 M77.371,15h-19c-1.105,0-2-0.895-2-2c0-1.105,0.895-2,2-2h19c1.105,0,2,0.895,2,2
		C79.371,14.105,78.476,15,77.371,15"/>
	<path clip-path="url(#SVGID_2_)" fill="#106384" d="M40.638,45.516c-0.512,0-1.024-0.195-1.414-0.586
		c-0.781-0.781-0.781-2.047,0-2.828l9.25-9.25c0.781-0.781,2.047-0.781,2.828,0c0.781,0.781,0.781,2.047,0,2.828l-9.25,9.25
		C41.662,45.321,41.15,45.516,40.638,45.516"/>
	<path clip-path="url(#SVGID_2_)" fill="#106384" d="M42.638,55.516c-0.512,0-1.024-0.195-1.414-0.586
		c-0.781-0.781-0.781-2.047,0-2.828l17.25-17.25c0.781-0.781,2.047-0.781,2.828,0c0.781,0.781,0.781,2.047,0,2.828l-17.25,17.25
		C43.662,55.321,43.15,55.516,42.638,55.516"/>
	<polygon clip-path="url(#SVGID_2_)" fill="#106384" points="109.871,87.332 109.871,170.5 25.871,170.5 25.871,117.905 
		17.871,120.817 17.871,178.5 117.871,178.5 117.871,84.243 	"/>
	<path clip-path="url(#SVGID_2_)" fill="#106384" d="M135.501,65.747c-0.591-1.624-2.124-2.633-3.757-2.633
		c-0.455,0-0.917,0.078-1.37,0.242L2.633,109.849c-2.076,0.756-3.146,3.051-2.391,5.127c0.592,1.625,2.125,2.633,3.76,2.633
		c0.454,0,0.916-0.078,1.367-0.242L133.11,70.874C135.186,70.118,136.256,67.823,135.501,65.747"/>
	<path clip-path="url(#SVGID_2_)" fill="#106384" d="M99.308,91.154v56.542c-7,1.075-12.166,6.901-13.241,12.901H48.676
		c-1.075-6-6.368-11.826-13.368-12.901v-33.248l-5,1.82v36.329h2.563c6.066,0,10.437,4.838,10.437,10.903v2.097h47V163.5
		c0-6.065,5.498-10.903,11.563-10.903h2.437V89.334L99.308,91.154z"/>
	<path clip-path="url(#SVGID_2_)" fill="#106384" d="M84.371,99.165c0,9.373-7.626,16.999-16.999,16.999
		c-6.11,0-11.461-3.25-14.457-8.101l-6.692,2.435c4.053,7.533,12.012,12.666,21.149,12.666c13.233,0,23.999-10.766,23.999-23.999
		c0-1.684-0.176-3.327-0.508-4.914l-6.694,2.436C84.289,97.498,84.371,98.321,84.371,99.165"/>
</g>
</svg>
